<?xml version="1.0" encoding="UTF-8"?>
<svg version="1.1" xmlns="http://www.w3.org/2000/svg" width="1024" height="1024">
<path d="M0 0 C1.2991015 29.01266125 1.0497718 53.31677833 -11 80 C-12.04050918 82.4292585 -13.07701004 84.86023802 -14.109375 87.29296875 C-15.94701944 91.57901208 -17.83332825 95.83513198 -19.78515625 100.0703125 C-21.43557752 103.66167737 -22.78070729 107.23761108 -24 111 C-25.11281336 112.82096731 -26.23359638 114.63764795 -27.3984375 116.42578125 C-29.45791764 119.73601885 -31.30899087 123.14732481 -33.1875 126.5625 C-36.76828177 133.04463316 -40.67797345 139.22050316 -44.90112305 145.30297852 C-47.23369055 148.36593755 -47.23369055 148.36593755 -48 152 C-49.65203479 153.6811712 -51.32160494 155.34514484 -53 157 C-54.55168654 158.95507125 -56.07096165 160.93616343 -57.5625 162.9375 C-65.47097832 173.40362671 -74.14072355 183.3295127 -83 193 C-83.52464844 193.57363281 -84.04929687 194.14726563 -84.58984375 194.73828125 C-86 196 -86 196 -88 196 C-88.22816406 196.57363281 -88.45632813 197.14726563 -88.69140625 197.73828125 C-90.35399597 200.61183183 -92.33101403 202.13447159 -94.9375 204.1875 C-95.92492187 204.97253906 -96.91234375 205.75757813 -97.9296875 206.56640625 C-98.94289063 207.36949219 -99.95609375 208.17257812 -101 209 C-102.85582675 210.5396679 -104.71003985 212.08128321 -106.5625 213.625 C-124.9759556 228.65267168 -146.56027593 241.08503991 -169 249 C-169.68932617 249.2470166 -170.37865234 249.4940332 -171.08886719 249.74853516 C-180.59149162 253.10227766 -190.19474649 255.65168085 -200.0625 257.6875 C-200.96274902 257.87771729 -201.86299805 258.06793457 -202.79052734 258.26391602 C-224.40225676 262.4836641 -246.16163225 263.49281683 -268.125 263.6875 C-270.74903466 263.72038946 -273.37305826 263.75417266 -275.99707031 263.78881836 C-296.99720551 264.04935329 -317.99863845 264.12253936 -339 264 C-336.06543551 261.58583672 -333.18796444 259.39481996 -329.8828125 257.51953125 C-328.73752075 256.86428467 -328.73752075 256.86428467 -327.5690918 256.19580078 C-326.7625415 255.73931152 -325.95599121 255.28282227 -325.125 254.8125 C-323.4044097 253.82776273 -321.68436281 252.84207539 -319.96484375 251.85546875 C-319.11776855 251.36997559 -318.27069336 250.88448242 -317.39794922 250.38427734 C-314.13793151 248.50234898 -310.90889165 246.57210412 -307.6875 244.625 C-302.57176485 241.53572723 -297.43572224 238.48344617 -292.28540039 235.45214844 C-280.67589295 228.61811811 -269.1503497 221.65416721 -257.65869141 214.62402344 C-255.21681629 213.13243911 -252.77145837 211.64682346 -250.32421875 210.1640625 C-227.88132745 196.54978128 -205.78193583 182.35803623 -184.3125 167.25 C-183.59924561 166.74839355 -182.88599121 166.24678711 -182.15112305 165.72998047 C-179.6154327 163.93045829 -177.20295156 162.20295156 -175 160 C-173.00889737 158.65341614 -171.00728773 157.32233647 -169 156 C-154.75487868 147.48211366 -154.75487868 147.48211366 -144 136 C-143.30777344 135.58621094 -142.61554688 135.17242188 -141.90234375 134.74609375 C-138.17116831 132.50136236 -134.92084867 129.82433193 -131.5625 127.0625 C-130.86092773 126.48838379 -130.15935547 125.91426758 -129.43652344 125.32275391 C-115.37167309 113.77106857 -101.5835972 101.93406634 -88.9609375 88.80078125 C-87 87 -87 87 -85 87 C-84.67 86.01 -84.34 85.02 -84 84 C-82.44140625 82.5 -82.44140625 82.5 -80.5625 81 C-78.11225368 79.03571068 -76.78619422 77.67929132 -75 75 C-74.34 75 -73.68 75 -73 75 C-72.67 74.01 -72.34 73.02 -72 72 C-70.5625 70.3125 -70.5625 70.3125 -69 69 C-68.34 69 -67.68 69 -67 69 C-67 68.34 -67 67.68 -67 67 C-62.69767442 62.23255814 -62.69767442 62.23255814 -59 61 C-59 60.34 -59 59.68 -59 59 C-57.37454754 57.2713442 -55.71280944 55.63957768 -54 54 C-52.65352158 52.65898397 -51.31000927 51.31498612 -49.96875 49.96875 C-41.03125 41.03125 -41.03125 41.03125 -38.89306641 38.89331055 C-37.42550951 37.42556439 -35.95869644 35.95707448 -34.4921875 34.48828125 C-32.34590339 32.34536122 -30.19340282 30.20902879 -28.0390625 28.07421875 C-26.56765116 26.6120367 -25.0962984 25.1497957 -23.625 23.6875 C-22.89539063 22.96626953 -22.16578125 22.24503906 -21.4140625 21.50195312 C-17.20059504 17.30729579 -13.21121358 13.02952035 -9.42333984 8.44458008 C-8.9536377 7.96786865 -8.48393555 7.49115723 -8 7 C-7.34 7 -6.68 7 -6 7 C-5.5978125 6.1028125 -5.5978125 6.1028125 -5.1875 5.1875 C-2.37142857 0 -2.37142857 0 0 0 Z " fill="#ACFE3B" transform="translate(1024,384)"/>
<path d="M0 0 C-1.58977193 4.90179678 -4.41644866 8.57708734 -7.5 12.625 C-8.03391357 13.33140625 -8.56782715 14.0378125 -9.11791992 14.765625 C-13.76121899 20.8343955 -18.77243803 26.42696437 -24 32 C-25.25672861 33.43162126 -26.50735415 34.86863798 -27.75 36.3125 C-30.70449631 39.70004305 -33.70697012 42.93671639 -37 46 C-37.66 46 -38.32 46 -39 46 C-39 46.66 -39 47.32 -39 48 C-41.41520001 50.58203948 -44.28373224 52.74469774 -47 55 C-47.84522217 55.7115625 -47.84522217 55.7115625 -48.70751953 56.4375 C-58.06897161 64.30633285 -67.63925718 71.50203017 -78 78 C-78.61198242 78.38639648 -79.22396484 78.77279297 -79.85449219 79.17089844 C-110.37473651 98.32431847 -154.25811859 119.8637992 -191 119 C-191.33 119.66 -191.66 120.32 -192 121 C-194.4777832 121.37670898 -194.4777832 121.37670898 -197.73828125 121.55859375 C-199.51066162 121.66856689 -199.51066162 121.66856689 -201.31884766 121.78076172 C-202.53362793 121.85311035 -203.7484082 121.92545898 -205 122 C-207.18143897 122.17280318 -209.36245387 122.35105901 -211.54296875 122.53515625 C-228.37948375 123.89013476 -244.78283843 124.41447366 -261.63452148 123.35839844 C-267.76106734 122.97928219 -273.86169826 122.89167703 -280 123 C-280 122.34 -280 121.68 -280 121 C-280.67160156 120.97421875 -281.34320313 120.9484375 -282.03515625 120.921875 C-339.25342928 117.67335369 -401.28731282 95.88806013 -448 63 C-444.97103929 59.97103929 -441.45986439 60.60609789 -437.38549805 60.51342773 C-436.04577438 60.47150803 -436.04577438 60.47150803 -434.6789856 60.42874146 C-431.70675597 60.33796243 -428.73432802 60.26085411 -425.76171875 60.18359375 C-423.68493539 60.12248343 -421.60817862 60.06046301 -419.53144836 59.99757385 C-414.03729637 59.83340464 -408.54288804 59.68051966 -403.04833984 59.53027344 C-395.38097869 59.31862174 -387.71405047 59.09177107 -380.04707336 58.86671448 C-375.9688742 58.7470514 -371.89059452 58.63144763 -367.81217957 58.51939392 C-355.19891818 58.16670549 -342.60153184 57.64570275 -330 57 C-328.83441055 56.94201736 -327.66882111 56.88403473 -326.46791077 56.82429504 C-251.78345633 53.08498521 -180.40835745 42.70745345 -108 24 C-106.6392334 23.6484787 -106.6392334 23.6484787 -105.25097656 23.28985596 C-102.62559543 22.61142098 -100.00029182 21.93268674 -97.375 21.25390625 C-94.06267935 20.39774142 -90.75019355 19.54222087 -87.4375 18.6875 C-86.24985046 18.38094986 -86.24985046 18.38094986 -85.03820801 18.06820679 C-73.95390338 15.21232362 -62.8469848 12.48443238 -51.6875 9.9375 C-50.44218506 9.65028076 -49.19687012 9.36306152 -47.91381836 9.06713867 C-41.86316176 7.71226402 -36.00188279 6.64766913 -29.80395508 6.31079102 C-29.2086499 6.20822998 -28.61334473 6.10566895 -28 6 C-27.67 5.34 -27.34 4.68 -27 4 C-25.01106326 3.75574461 -23.01970995 3.52599407 -21.0234375 3.3515625 C-16.43954557 2.81855181 -11.93662887 1.90252445 -7.40991211 1.01586914 C-2.18355751 0 -2.18355751 0 0 0 Z " fill="#11BFFE" transform="translate(499,732)"/>
<path d="M0 0 C21.16772242 7.25036162 38.61677679 47.34396442 47.94897461 66.32958984 C48.96956533 68.44219477 49.97805904 70.5602477 50.984375 72.6796875 C51.37093262 73.48470703 51.75749023 74.28972656 52.15576172 75.11914062 C73.984375 120.80250583 73.984375 120.80250583 73.984375 136.6796875 C74.644375 137.0096875 75.304375 137.3396875 75.984375 137.6796875 C76.52709961 139.90136719 76.52709961 139.90136719 76.94921875 142.8515625 C77.64631237 147.46069373 78.3959888 152.04777852 79.23828125 156.6328125 C81.52287098 169.30923766 83.76083536 181.77535387 83.984375 194.6796875 C84.644375 194.6796875 85.304375 194.6796875 85.984375 194.6796875 C88.17165304 254.84146809 83.77474387 312.36364343 70.796875 371.1171875 C70.62861206 371.88022186 70.46034912 372.64325623 70.2869873 373.42941284 C68.47465036 381.60299927 66.57701165 389.71026908 63.984375 397.6796875 C64.644375 398.0096875 65.304375 398.3396875 65.984375 398.6796875 C64.994375 398.6796875 64.004375 398.6796875 62.984375 398.6796875 C62.90598389 399.26202148 62.82759277 399.84435547 62.74682617 400.44433594 C61.26145041 409.9143861 58.27773809 418.84859744 55.296875 427.9296875 C55.01625214 428.79108337 54.73562927 429.65247925 54.44650269 430.53997803 C50.01494934 444.10445791 45.19116497 457.49493244 40.046875 470.8046875 C39.73658356 471.60781372 39.42629211 472.41093994 39.1065979 473.23840332 C35.26623944 483.14145967 31.23945485 492.94737594 26.984375 502.6796875 C26.324375 502.6796875 25.664375 502.6796875 24.984375 502.6796875 C25.44984503 489.28526629 26.19480149 475.92253002 27.140625 462.5546875 C27.19412109 461.79568146 27.24761719 461.03667542 27.30273438 460.25466919 C27.80408886 453.15056189 28.31245025 446.04696501 28.82763672 438.94384766 C33.03512507 380.81178074 33.09168298 322.70069467 26.984375 264.6796875 C26.90401001 263.90588745 26.82364502 263.1320874 26.74084473 262.33483887 C21.54957065 212.52530714 12.36751951 163.45085763 2.95897675 114.30424118 C0.1552981 99.65254703 -2.55945082 84.98619061 -5.203125 70.3046875 C-5.38148895 69.32081055 -5.55985291 68.33693359 -5.74362183 67.32324219 C-7.51604687 57.53676708 -9.20714449 47.74305108 -10.703125 37.91015625 C-10.82483566 37.11723175 -10.94654633 36.32430725 -11.07194519 35.50735474 C-14.29365656 13.81536994 -14.29365656 13.81536994 -11.015625 4.6796875 C-7.63521911 0.66545551 -5.34838128 -0.90613071 0 0 Z " fill="#28C9FE" transform="translate(610.015625,45.3203125)"/>
<path d="M0 0 C1.42415596 0.77797173 2.8466911 1.55891091 4.26855469 2.34106445 C5.06090515 2.77562454 5.85325562 3.21018463 6.6696167 3.65791321 C10.04580786 5.60228929 13.1413712 7.84636042 16.25 10.1875 C16.88768311 10.6616333 17.52536621 11.1357666 18.18237305 11.62426758 C20.12747576 13.07519994 22.06521004 14.53535056 24 16 C24.5892627 16.44601562 25.17852539 16.89203125 25.78564453 17.3515625 C32.29951322 22.29758613 38.72919504 27.34273312 45.07421875 32.50390625 C46.93077282 34.04687185 46.93077282 34.04687185 49 35 C49 35.66 49 36.32 49 37 C49.53496094 37.22558594 50.06992187 37.45117188 50.62109375 37.68359375 C53.77066073 39.42645758 56.3600751 41.71199087 59.0625 44.0625 C60.22715355 45.06332802 61.39252929 46.06331619 62.55859375 47.0625 C63.13851074 47.56007813 63.71842773 48.05765625 64.31591797 48.5703125 C66.71843114 50.60990617 69.17108295 52.58524309 71.625 54.5625 C76.33142558 58.38902862 80.79648106 62.43160438 85.2578125 66.5390625 C87.90015883 68.91039895 90.60694167 71.15252997 93.375 73.375 C98.80891009 77.75944247 103.89826018 82.45500063 109 87.21484375 C111.9621924 89.97666341 114.9902134 92.65302434 118.0546875 95.30078125 C120.3366529 97.29406428 122.57228574 99.33493027 124.8125 101.375 C129.1364471 105.27645455 133.58254221 108.99023736 138.11328125 112.6484375 C140.1932174 114.34278332 142.25005699 116.0513036 144.29296875 117.7890625 C144.83840332 118.25127197 145.38383789 118.71348145 145.94580078 119.18969727 C147.48858298 120.49973416 149.02759207 121.81421065 150.56640625 123.12890625 C152.75263015 125.20317542 152.75263015 125.20317542 155 125 C156.13088205 126.13088205 157.25779117 127.2658701 158.37109375 128.4140625 C175.50009454 145.09121915 197.1477198 158.34243451 216.625 172.125 C217.23239014 172.55514404 217.83978027 172.98528809 218.46557617 173.4284668 C231.28021372 182.46092006 244.26605503 191.24444893 257.3125 199.9375 C258.02823181 200.41489624 258.74396362 200.89229248 259.48138428 201.38415527 C268.53841287 207.42183838 277.63026924 213.38676908 286.86645508 219.14819336 C291.46755357 222.01922426 296.00204294 224.97009296 300.5 228 C313.48864753 236.73657818 326.83755916 244.91866989 340.15600586 253.1394043 C346.02350642 256.76454795 351.86318057 260.43094371 357.6875 264.125 C366.04615656 269.42374462 374.47677117 274.59745149 382.93261719 279.73925781 C387.16472816 282.32010583 391.37834659 284.93104776 395.59375 287.5390625 C397.89892104 288.983592 397.89892104 288.983592 400 290 C400 290.66 400 291.32 400 292 C385.27673916 288.86837761 370.98570509 284.48093008 356.625 280 C355.41234467 279.62317078 354.19968933 279.24634155 352.95028687 278.85809326 C323.2082505 269.60908267 293.83706965 259.81181655 265 248 C264.07217712 247.62101562 264.07217712 247.62101562 263.12561035 247.234375 C238.7181267 237.26112458 214.57362115 226.80143313 191.35693359 214.26074219 C188.85973215 212.92496963 186.34847397 211.61945353 183.83203125 210.3203125 C154.82579202 195.33886308 127.58786615 177.91282282 101 159 C100.34 159.33 99.68 159.66 99 160 C98.7510498 159.40396973 98.50209961 158.80793945 98.24560547 158.19384766 C96.81061761 155.66644647 95.43353727 154.57111307 93.0703125 152.8984375 C91.88562378 152.0468103 91.88562378 152.0468103 90.67700195 151.17797852 C89.83484131 150.58299561 88.99268066 149.9880127 88.125 149.375 C80.47406535 143.85854182 73.1303064 138.18183059 66 132 C65.28972656 131.38898438 64.57945313 130.77796875 63.84765625 130.1484375 C59.31744974 126.21926829 54.87324348 122.19416254 50.42578125 118.171875 C48.37085486 116.33203752 46.28827574 114.53676505 44.1875 112.75 C40.31622371 109.37360852 36.65288083 105.79652457 33 102.1875 C32.41114014 101.61161133 31.82228027 101.03572266 31.21557617 100.44238281 C29.77048818 99.00049617 28.38009139 97.50421546 27 96 C27 95.34 27 94.68 27 94 C25.515 93.505 25.515 93.505 24 93 C22.4921875 91.50390625 22.4921875 91.50390625 20.875 89.5625 C17.50597351 85.5835024 14.02984767 81.7232117 10.50390625 77.8828125 C9.26447266 76.45582031 9.26447266 76.45582031 8 75 C7.35087143 74.36151123 6.70174286 73.72302246 6.03294373 73.06518555 C-0.79181745 65.7461063 -1.07834005 59.46511485 -0.78125 49.8046875 C-0.766296 48.361696 -0.75492393 46.91866339 -0.74694824 45.47561646 C-0.71665913 41.70984224 -0.63831221 37.94660681 -0.54931641 34.18182373 C-0.46691239 30.32729426 -0.43082175 26.47234725 -0.390625 22.6171875 C-0.30528215 15.07697778 -0.16907413 7.53884694 0 0 Z " fill="#FE9474" transform="translate(0,326)"/>
<path d="M0 0 C0.99 0.33 1.98 0.66 3 1 C3.76818573 13.06676861 4.24066005 25.09559267 4.25 37.1875 C4.25067474 37.98849121 4.25134949 38.78948242 4.25204468 39.61474609 C4.23436291 52.93258545 3.54557918 65.89461335 1 79 C0.74259033 80.33538818 0.74259033 80.33538818 0.47998047 81.69775391 C-5.94944013 113.79889144 -20.78942626 141.08092059 -43 165 C-43.53882813 165.59296875 -44.07765625 166.1859375 -44.6328125 166.796875 C-53.12263288 175.75598194 -63.74676188 183.21242024 -74 190 C-74.88945312 190.59941406 -75.77890625 191.19882812 -76.6953125 191.81640625 C-87.23731146 198.62879461 -98.61526206 203.7702326 -110 209 C-110.77811035 209.3599707 -111.5562207 209.71994141 -112.35791016 210.09082031 C-123.44072404 215.18642532 -123.44072404 215.18642532 -127 214 C-127.51056617 210.20967983 -128.00647633 206.41757378 -128.5 202.625 C-128.64308594 201.56410156 -128.78617187 200.50320313 -128.93359375 199.41015625 C-132.33274962 173.02623214 -123.47405105 149.5878792 -107.7578125 128.42578125 C-106.04120295 126.05686007 -104.47213973 123.62194984 -102.91992188 121.14306641 C-97.84204688 113.03593001 -92.18965619 105.44358319 -86.39404297 97.83935547 C-82.38357717 92.54778816 -78.38828275 87.22187735 -74.8125 81.625 C-73 79 -73 79 -70.64453125 76.6484375 C-68.19939018 74.1996847 -66.03789109 71.69744592 -63.875 69 C-55.90868636 59.17707443 -47.757584 49.6006728 -39.1171875 40.36328125 C-36.65577019 37.73091519 -34.26295131 35.04329718 -31.87109375 32.34765625 C-26.52140449 26.39055668 -20.87090289 20.76023076 -15.1875 15.125 C-14.15405866 14.0965935 -13.12085446 13.06794863 -12.08789062 12.0390625 C-10.20091084 10.16014794 -8.31234191 8.28288745 -6.42260742 6.40673828 C-4.27733206 4.27551541 -2.13686131 2.13965459 0 0 Z " fill="#1CC6FE" transform="translate(569,704)"/>
<path d="M0 0 C3.73538452 1.17367079 7.1456276 2.46619913 10.57421875 4.35546875 C11.40131348 4.80962158 12.2284082 5.26377441 13.08056641 5.73168945 C14.37099854 6.45231567 14.37099854 6.45231567 15.6875 7.1875 C16.57872559 7.68145264 17.46995117 8.17540527 18.38818359 8.68432617 C23.91555642 11.77048466 29.32933818 14.9749758 34.62109375 18.453125 C37.82029975 20.53339688 41.11199225 22.44281165 44.41796875 24.34765625 C47.32612915 26.20870292 50.03576326 28.26121959 52.78491211 30.34741211 C56.67894139 33.25259057 60.69279262 35.9858842 64.6875 38.75 C72.64309164 44.28948676 80.3911385 49.99402049 88 56 C89.17138589 56.91468921 90.34327896 57.82872922 91.515625 58.7421875 C107.71717145 71.38579889 123.41579106 84.5275031 138.43847656 98.55175781 C139.95684123 99.9599722 141.48701934 101.35371331 143.0234375 102.7421875 C149.01638533 108.1637717 154.79459024 113.73709839 160.4675293 119.49121094 C163.31480472 122.36594363 166.19015766 125.10653153 169.3125 127.6875 C170.199375 128.450625 171.08625 129.21375 172 130 C172 130.66 172 131.32 172 132 C173.32 132.66 174.64 133.32 176 134 C176 134.66 176 135.32 176 136 C176.55975525 136.23509277 177.1195105 136.47018555 177.69622803 136.71240234 C180.56220238 138.31421967 182.53526452 140.2808598 184.86035156 142.6015625 C185.32910706 143.06681335 185.79786255 143.53206421 186.28082275 144.01141357 C187.82247932 145.54429638 189.35673904 147.08434442 190.890625 148.625 C191.96078747 149.69381503 193.03124667 150.76233303 194.10198975 151.83056641 C196.34111749 154.06674918 198.5765963 156.30650093 200.80957031 158.54882812 C203.6768374 161.42751696 206.55302616 164.29709784 209.43198013 167.16409302 C211.64198179 169.3668827 213.84721633 171.57439501 216.05101776 173.78338623 C217.1101359 174.84384127 218.17074926 175.90280509 219.23285675 176.96026611 C220.71253049 178.43488252 222.18567746 179.91571938 223.65722656 181.3984375 C224.49787659 182.24067871 225.33852661 183.08291992 226.20465088 183.95068359 C228 186 228 186 228 188 C228.59546631 188.26949463 229.19093262 188.53898926 229.80444336 188.81665039 C231.99431411 189.99693545 233.39709136 191.16583189 235.12890625 192.93359375 C235.96905273 193.7834082 235.96905273 193.7834082 236.82617188 194.65039062 C237.39916016 195.24013672 237.97214844 195.82988281 238.5625 196.4375 C239.13935547 197.02337891 239.71621094 197.60925781 240.31054688 198.21289062 C241.38587019 199.30557787 242.45911775 200.40031484 243.52954102 201.49780273 C245.00913755 203.00933477 246.50185535 204.50687053 248 206 C245.03939643 207.48030179 243.3658185 206.40143141 240.234375 205.4453125 C239.04489258 205.08228027 237.85541016 204.71924805 236.62988281 204.34521484 C235.33627502 203.9394748 234.04298737 203.53271285 232.75 203.125 C232.09817749 202.92158997 231.44635498 202.71817993 230.77478027 202.50860596 C219.42072926 198.95311068 208.41669291 194.77431418 197.49267578 190.06103516 C194.97522107 188.98945257 192.44369108 187.96271768 189.90234375 186.94921875 C188.70593262 186.4699292 188.70593262 186.4699292 187.48535156 185.98095703 C185.99542924 185.38543134 184.50397435 184.79372017 183.01074219 184.20654297 C178.11196884 182.22393767 178.11196884 182.22393767 177 180 C175.17912417 179.3507139 175.17912417 179.3507139 173.0625 178.9375 C168.82658151 178.00728922 165.66721156 176.35077664 162 174 C161.67 173.34 161.34 172.68 161 172 C159.00487437 171.31888461 157.00363771 170.65565262 155 170 C152.40351904 168.81036579 149.89161185 167.47423385 147.375 166.125 C146.64063721 165.73280273 145.90627441 165.34060547 145.1496582 164.93652344 C105.63301136 143.57886486 67.63090716 116.98089557 33.8203125 87.42578125 C31.13364052 85.04250994 31.13364052 85.04250994 28.6171875 83.29296875 C28.08351563 82.86628906 27.54984375 82.43960938 27 82 C27 81.34 27 80.68 27 80 C26.44441406 79.77183594 25.88882812 79.54367187 25.31640625 79.30859375 C22.34755288 77.63141689 20.31384481 75.50336096 17.9375 73.0625 C17.08027344 72.18722656 16.22304687 71.31195313 15.33984375 70.41015625 C14.18162109 69.21712891 14.18162109 69.21712891 13 68 C12.24759033 67.40215698 12.24759033 67.40215698 11.47998047 66.79223633 C9.29979326 64.15205911 8.73664629 61.17997378 7.98046875 57.9140625 C7.81137497 57.2089151 7.64228119 56.5037677 7.46806335 55.7772522 C5.77148678 48.44977171 4.63005603 41.05693993 3.61694336 33.60839844 C3.31148873 31.3675813 2.99169777 29.12915087 2.66992188 26.890625 C1.40573928 17.93645831 0.50644848 9.03331366 0 0 Z " fill="#2CC9FE" transform="translate(239,406)"/>
<path d="M0 0 C0.99 0.33 1.98 0.66 3 1 C3 1.66 3 2.32 3 3 C3.66 3 4.32 3 5 3 C7.625 5.375 7.625 5.375 10 8 C10 8.66 10 9.32 10 10 C10.54398438 10.23460937 11.08796875 10.46921875 11.6484375 10.7109375 C15.70354557 12.93383727 19.02706839 16.11683828 22.5390625 19.1015625 C24.74591095 21.20360115 24.74591095 21.20360115 27 21 C28.15607596 22.12104336 29.29999377 23.25629826 30.39453125 24.4375 C31.98278081 26.07255674 31.98278081 26.07255674 34.01171875 27.375 C54.6233185 42.33909336 60.09300201 86.49543749 64 110 C64.24339111 111.33659668 64.24339111 111.33659668 64.49169922 112.70019531 C70.22451799 144.82527885 69.135793 180.86911717 64 213 C63.82183746 214.12991364 63.82183746 214.12991364 63.64007568 215.28265381 C60.32182091 236.29653019 56.62589104 257.23126199 52 278 C51.60128277 279.81374061 51.20284474 281.62754262 50.8046875 283.44140625 C49.88173973 287.63035116 48.9456006 291.81611353 48 296 C45.38642894 293.38642894 45.01727956 291.18350586 44.00390625 287.625 C43.81480682 286.96594162 43.6257074 286.30688324 43.43087769 285.62785339 C42.80054424 283.4206336 42.18097312 281.2105705 41.5625 279 C41.34546417 278.23136627 41.12842834 277.46273254 40.90481567 276.67080688 C33.31823126 249.8017255 26.28515582 222.78364572 19.8125 195.625 C19.61582733 194.80446136 19.41915466 193.98392273 19.21652222 193.13851929 C18.66629938 190.83576721 18.12280081 188.53155061 17.58203125 186.2265625 C17.42012299 185.5494371 17.25821472 184.87231171 17.09140015 184.17466736 C16.35140443 180.97973546 16 178.31116064 16 175 C15.34 174.67 14.68 174.34 14 174 C13.75891334 171.99168179 13.531502 169.98129483 13.34912109 167.96679688 C12.93741201 164.4681334 12.27468447 161.06357836 11.58203125 157.609375 C11.29691407 156.18575069 11.01200995 154.7620837 10.72729492 153.33837891 C10.57811615 152.59307922 10.42893738 151.84777954 10.27523804 151.07989502 C5.94360424 129.27003459 2.92859031 107.32285358 0.27276611 85.25280762 C0.03785752 83.31266975 -0.20514822 81.37351538 -0.44970703 79.43457031 C-2.10651908 66.06976687 -2.19378843 52.69929502 -2.25 39.25 C-2.25553894 38.38717407 -2.26107788 37.52434814 -2.26678467 36.63537598 C-2.3247362 24.29611171 -1.52402282 12.24425623 0 0 Z " fill="#05B6FE" transform="translate(527,283)"/>
<path d="M0 0 C29.34708329 -0.21010689 58.68037463 0.33041197 88.02026367 0.94006348 C90.58182218 0.99158848 93.1433601 1.03838301 95.70507812 1.08105469 C130.11828231 1.67497942 165.29811786 3.72694945 199 11 C200.19906982 11.25499268 200.19906982 11.25499268 201.42236328 11.51513672 C206.00005673 12.51293005 210.49860127 13.69435869 215 15 C215.7223584 15.20705566 216.4447168 15.41411133 217.18896484 15.62744141 C235.31589896 20.88223269 252.26940275 28.32316612 269 37 C260.14348553 46.35843759 248.56915764 51.39617901 236.84570312 56.22705078 C235.21212165 56.91116704 233.59660427 57.63807241 231.984375 58.37109375 C209.2590972 68.5593817 184.92493178 70.26446487 160.375 70.3125 C158.98556183 70.31801376 158.98556183 70.31801376 157.5680542 70.32363892 C154.90711127 70.32915269 152.24681836 70.31840886 149.5859375 70.30078125 C148.77954834 70.30154663 147.97315918 70.30231201 147.14233398 70.30310059 C143.20913233 70.25389861 140.39026933 70.01364042 137 68 C134.839794 67.46807655 134.839794 67.46807655 132.53515625 67.140625 C131.66375 66.99794189 130.79234375 66.85525879 129.89453125 66.70825195 C128.95996094 66.55702881 128.02539062 66.40580566 127.0625 66.25 C102.56285199 61.9896308 79.7565595 53.50994479 57.77880859 41.93652344 C56.0419425 41.02208227 54.29644032 40.12410408 52.55078125 39.2265625 C33.60017153 29.31393588 15.37905947 15.89614215 0 1 C0 0.67 0 0.34 0 0 Z " fill="#1FC6FE" transform="translate(638,674)"/>
<path d="M0 0 C0 0.33 0 0.66 0 1 C-0.82201904 1.0501123 -1.64403809 1.10022461 -2.4909668 1.15185547 C-6.22373946 1.38428085 -9.95556526 1.62950208 -13.6875 1.875 C-15.62786133 1.99294922 -15.62786133 1.99294922 -17.60742188 2.11328125 C-19.47817383 2.23896484 -19.47817383 2.23896484 -21.38671875 2.3671875 C-23.10701294 2.47716064 -23.10701294 2.47716064 -24.86206055 2.58935547 C-27.90913749 2.98810933 -30.17296702 3.86063714 -33 5 C-36.8125 4.625 -36.8125 4.625 -40 4 C-40 3.01 -40 2.02 -40 1 C-36.07146009 0.85502689 -32.14283209 0.71274226 -28.21411133 0.57275391 C-26.23448842 0.50168685 -24.25493827 0.42860231 -22.27539062 0.35546875 C-14.84618173 0.09215502 -7.43387795 -0.06979257 0 0 Z " fill="#1BAFED" transform="translate(92,792)"/>
<path d="M0 0 C0 0.33 0 0.66 0 1 C-8.58 1.99 -17.16 2.98 -26 4 C-26.33 3.34 -26.66 2.68 -27 2 C-23.535 1.505 -23.535 1.505 -20 1 C-20 0.67 -20 0.34 -20 0 C-13.11422188 -1.01593448 -6.90188971 -0.83854735 0 0 Z " fill="#ABF849" transform="translate(811,643)"/>
<path d="M0 0 C0.77085937 0.42152344 1.54171875 0.84304688 2.3359375 1.27734375 C3.33882813 1.82519531 4.34171875 2.37304688 5.375 2.9375 C6.37273437 3.48277344 7.37046875 4.02804687 8.3984375 4.58984375 C9.92070346 5.4149759 11.45128783 6.22564391 13 7 C13 7.66 13 8.32 13 9 C4.585 7.02 4.585 7.02 -4 5 C-3.01 4.01 -2.02 3.02 -1 2 C-0.67 1.34 -0.34 0.68 0 0 Z " fill="#E89F83" transform="translate(387,609)"/>
<path d="M0 0 C0 1.65 0 3.3 0 5 C-5.19209404 5.21192221 -9.126739 4.5912689 -14 3 C-13.360625 2.87625 -12.72125 2.7525 -12.0625 2.625 C-11.0415625 2.315625 -11.0415625 2.315625 -10 2 C-9.67 1.34 -9.34 0.68 -9 0 C-5.65506316 -0.99444068 -3.31044803 -1.10348268 0 0 Z " fill="#F59A7B" transform="translate(387,608)"/>
<path d="M0 0 C0.70189453 0.01353516 1.40378906 0.02707031 2.12695312 0.04101562 C3.85579829 0.07629818 5.58424765 0.13010417 7.3125 0.1875 C7.6425 0.8475 7.9725 1.5075 8.3125 2.1875 C1.93891289 3.14955088 -4.24679529 3.29405578 -10.6875 3.1875 C-7.97885416 -0.76650025 -4.33266512 -0.15777212 0 0 Z " fill="#ABF24F" transform="translate(695.6875,644.8125)"/>
<path d="M0 0 C0 0.99 0 1.98 0 3 C-0.68964844 3.06058594 -1.37929688 3.12117187 -2.08984375 3.18359375 C-8.06975696 3.71678217 -14.03551528 4.31555093 -20 5 C-16.76168874 3.20958752 -13.58584892 2.26249761 -10 1.375 C-8.96875 1.11460937 -7.9375 0.85421875 -6.875 0.5859375 C-4 0 -4 0 0 0 Z " fill="#24BEF9" transform="translate(434,746)"/>
<path d="M0 0 C1.31878578 0.76002917 2.6298684 1.53343653 3.9375 2.3125 C4.66839844 2.74175781 5.39929688 3.17101562 6.15234375 3.61328125 C8 5 8 5 9 8 C4.89041233 6.54955729 1.56741255 4.48889248 -2 2 C-1.34 1.34 -0.68 0.68 0 0 Z " fill="#37C5F8" transform="translate(345,544)"/>
<path d="M0 0 C0.99 0 1.98 0 3 0 C3 5.61 3 11.22 3 17 C2.67 17 2.34 17 2 17 C-0.29612756 5.47835991 -0.29612756 5.47835991 0 0 Z " fill="#31C3F7" transform="translate(628,237)"/>
<path d="M0 0 C1.32 0 2.64 0 4 0 C3.34 3.96 2.68 7.92 2 12 C1.67 12 1.34 12 1 12 C0.67 8.04 0.34 4.08 0 0 Z " fill="#40C7F6" transform="translate(241,424)"/>
<path d="M0 0 C3.96 0.33 7.92 0.66 12 1 C8 4 8 4 5.859375 4.07421875 C3.90625 3.71614583 1.953125 3.35807292 0 3 C0 2.01 0 1.02 0 0 Z " fill="#0FAFF3" transform="translate(52,793)"/>
<path d="M0 0 C5.86448454 0.2555331 9.65757571 0.65757571 14 5 C8.94744036 4.36843005 4.70406799 2.86540627 0 1 C0 0.67 0 0.34 0 0 Z " fill="#0FB1F8" transform="translate(114,827)"/>
<path d="M0 0 C-3.34939881 2.02558881 -5.86962551 2.21738987 -9.75 2.125 C-10.73484375 2.10695313 -11.7196875 2.08890625 -12.734375 2.0703125 C-13.85585938 2.03550781 -13.85585938 2.03550781 -15 2 C-15 1.67 -15 1.34 -15 1 C-13.25215171 0.63536268 -11.50159498 0.2836922 -9.75 -0.0625 C-8.28820312 -0.35833984 -8.28820312 -0.35833984 -6.796875 -0.66015625 C-4.131881 -0.98397535 -2.51128277 -0.85503199 0 0 Z " fill="#1DB7F7" transform="translate(328,773)"/>
<path d="M0 0 C4.875 2.625 4.875 2.625 6 6 C3.36 5.34 0.72 4.68 -2 4 C-1.34 3.67 -0.68 3.34 0 3 C0 2.01 0 1.02 0 0 Z " fill="#3FC2F1" transform="translate(481,607)"/>
<path d="M0 0 C0.66 0 1.32 0 2 0 C2.33 2.64 2.66 5.28 3 8 C3.66 8 4.32 8 5 8 C4.67 9.65 4.34 11.3 4 13 C1.99706653 9.99559979 1.50728374 8.29006055 0.875 4.8125 C0.70742188 3.91144531 0.53984375 3.01039063 0.3671875 2.08203125 C0.24601563 1.39496094 0.12484375 0.70789063 0 0 Z " fill="#12B1F7" transform="translate(569,560)"/>
<path d="M0 0 C3.3 0 6.6 0 10 0 C6.55549263 2.29633824 4.06187717 2.54016485 0 3 C0 2.01 0 1.02 0 0 Z " fill="#1BB8FB" transform="translate(344,840)"/>
<path d="M0 0 C0.66 0 1.32 0 2 0 C1.25 6.625 1.25 6.625 -1 10 C-1.02689216 8.52093108 -1.04634621 7.04172517 -1.0625 5.5625 C-1.07410156 4.73878906 -1.08570313 3.91507813 -1.09765625 3.06640625 C-1 1 -1 1 0 0 Z " fill="#2AC1F3" transform="translate(638,536)"/>
<path d="M0 0 C3 1 3 1 3 1 Z " fill="#47CBE6" transform="translate(853,688)"/>
<path d="M0 0 C0.99 0.495 0.99 0.495 2 1 C1.01 1.495 1.01 1.495 0 2 C0 1.34 0 0.68 0 0 Z " fill="#53C7EE" transform="translate(459,606)"/>
<path d="M0 0 C3 1 3 1 3 1 Z " fill="#ADF544" transform="translate(785,584)"/>
<path d="M0 0 C0.66 0 1.32 0 2 0 C1.67 0.66 1.34 1.32 1 2 C0.67 1.34 0.34 0.68 0 0 Z " fill="#6AC4E8" transform="translate(402,581)"/>
<path d="M0 0 C0.66 0.66 1.32 1.32 2 2 C1.34 2 0.68 2 0 2 C0 1.34 0 0.68 0 0 Z " fill="#72C1E4" transform="translate(388,574)"/>
<path d="M0 0 C0.33 0.66 0.66 1.32 1 2 C0.34 1.67 -0.32 1.34 -1 1 C-0.67 0.67 -0.34 0.34 0 0 Z " fill="#F49279" transform="translate(147,516)"/>
<path d="" fill="#3CC2F5" transform="translate(0,0)"/>
<path d="" fill="#33C3F5" transform="translate(0,0)"/>
<path d="M0 0 C2 1 2 1 2 1 Z " fill="#3FC1F4" transform="translate(416,747)"/>
<path d="M0 0 C2 1 2 1 2 1 Z " fill="#33C0F4" transform="translate(753,739)"/>
<path d="" fill="#34C0F3" transform="translate(0,0)"/>
<path d="M0 0 C2 1 2 1 2 1 Z " fill="#3EC6F3" transform="translate(483,733)"/>
<path d="" fill="#3FC4F4" transform="translate(0,0)"/>
<path d="M0 0 C2 1 2 1 2 1 Z " fill="#4BCDE4" transform="translate(843,685)"/>
<path d="M0 0 C2 1 2 1 2 1 Z " fill="#4ECDE2" transform="translate(739,674)"/>
<path d="M0 0 C2 1 2 1 2 1 Z " fill="#4DCAE0" transform="translate(692,673)"/>
<path d="M0 0 C2 1 2 1 2 1 Z " fill="#A3EE72" transform="translate(789,647)"/>
<path d="M0 0 C2 1 2 1 2 1 Z " fill="#9CEF70" transform="translate(807,645)"/>
<path d="M0 0 C2 1 2 1 2 1 Z " fill="#9EED73" transform="translate(822,643)"/>
<path d="M0 0 C2 1 2 1 2 1 Z " fill="#A3F163" transform="translate(837,639)"/>
<path d="M0 0 C2 1 2 1 2 1 Z " fill="#A9EE55" transform="translate(878,623)"/>
<path d="M0 0 C2 1 2 1 2 1 Z " fill="#EC997E" transform="translate(331,599)"/>
<path d="M0 0 C2 1 2 1 2 1 Z " fill="#EE997F" transform="translate(307,591)"/>
<path d="M0 0 C2 1 2 1 2 1 Z " fill="#70C1E4" transform="translate(386,573)"/>
<path d="" fill="#35C6F7" transform="translate(0,0)"/>
<path d="" fill="#3EC5EE" transform="translate(0,0)"/>
<path d="" fill="#3DC7F0" transform="translate(0,0)"/>
<path d="M0 0 C2 1 2 1 2 1 Z " fill="#3CC7EF" transform="translate(670,462)"/>
<path d="" fill="#64C5E9" transform="translate(0,0)"/>
<path d="" fill="#3DC5EF" transform="translate(0,0)"/>
<path d="" fill="#62C3E8" transform="translate(0,0)"/>
<path d="" fill="#20A8E6" transform="translate(0,0)"/>
<path d="" fill="#34C5F6" transform="translate(0,0)"/>
<path d="M0 0 C2 1 2 1 2 1 Z " fill="#3AC4F6" transform="translate(625,240)"/>
<path d="M0 0 C2 1 2 1 2 1 Z " fill="#39BDEF" transform="translate(603,118)"/>
<path d="" fill="#2DB5E9" transform="translate(0,0)"/>
<path d="" fill="#1EB6F6" transform="translate(0,0)"/>
<path d="" fill="#1CB4F2" transform="translate(0,0)"/>
<path d="" fill="#1FB5F3" transform="translate(0,0)"/>
<path d="" fill="#1EB1F4" transform="translate(0,0)"/>
<path d="" fill="#19ADF0" transform="translate(0,0)"/>
<path d="" fill="#1CADED" transform="translate(0,0)"/>
<path d="" fill="#21ACED" transform="translate(0,0)"/>
<path d="" fill="#2BC2F9" transform="translate(0,0)"/>
<path d="" fill="#29C2FB" transform="translate(0,0)"/>
<path d="" fill="#30BDF6" transform="translate(0,0)"/>
<path d="" fill="#32BFEF" transform="translate(0,0)"/>
<path d="" fill="#25C1FD" transform="translate(0,0)"/>
<path d="" fill="#2DA0D2" transform="translate(0,0)"/>
<path d="" fill="#309ACA" transform="translate(0,0)"/>
<path d="" fill="#2BC4FA" transform="translate(0,0)"/>
<path d="" fill="#29C6FB" transform="translate(0,0)"/>
<path d="" fill="#27C1FD" transform="translate(0,0)"/>
<path d="" fill="#2CB9F2" transform="translate(0,0)"/>
<path d="" fill="#2CC7FC" transform="translate(0,0)"/>
<path d="" fill="#32BBF6" transform="translate(0,0)"/>
<path d="" fill="#32BAF4" transform="translate(0,0)"/>
<path d="" fill="#32BFF4" transform="translate(0,0)"/>
<path d="" fill="#32BDF2" transform="translate(0,0)"/>
<path d="" fill="#34BFF2" transform="translate(0,0)"/>
<path d="" fill="#34B8F0" transform="translate(0,0)"/>
<path d="" fill="#38C0F4" transform="translate(0,0)"/>
<path d="" fill="#31C8F9" transform="translate(0,0)"/>
<path d="" fill="#3EC1F2" transform="translate(0,0)"/>
<path d="" fill="#39C1F2" transform="translate(0,0)"/>
<path d="" fill="#40C2F4" transform="translate(0,0)"/>
<path d="" fill="#39C2F4" transform="translate(0,0)"/>
<path d="" fill="#40C3F1" transform="translate(0,0)"/>
<path d="" fill="#3FBFF6" transform="translate(0,0)"/>
<path d="" fill="#2FBCEE" transform="translate(0,0)"/>
<path d="" fill="#2FBFF2" transform="translate(0,0)"/>
<path d="" fill="#32BEF4" transform="translate(0,0)"/>
<path d="" fill="#33C2F5" transform="translate(0,0)"/>
<path d="" fill="#34BEF0" transform="translate(0,0)"/>
<path d="" fill="#35BCEF" transform="translate(0,0)"/>
<path d="" fill="#32BFF4" transform="translate(0,0)"/>
<path d="" fill="#2FBDEE" transform="translate(0,0)"/>
<path d="" fill="#34BEEF" transform="translate(0,0)"/>
<path d="" fill="#33C1F1" transform="translate(0,0)"/>
<path d="" fill="#31BBEE" transform="translate(0,0)"/>
<path d="" fill="#34C0F1" transform="translate(0,0)"/>
<path d="" fill="#34C1F1" transform="translate(0,0)"/>
<path d="" fill="#39C4F7" transform="translate(0,0)"/>
<path d="" fill="#3CC9F9" transform="translate(0,0)"/>
<path d="" fill="#3EC6F6" transform="translate(0,0)"/>
<path d="" fill="#36B4DB" transform="translate(0,0)"/>
<path d="" fill="#39C3F7" transform="translate(0,0)"/>
<path d="" fill="#3AC1F2" transform="translate(0,0)"/>
<path d="" fill="#3CC6F0" transform="translate(0,0)"/>
<path d="" fill="#48B9CC" transform="translate(0,0)"/>
<path d="" fill="#46BCD3" transform="translate(0,0)"/>
<path d="" fill="#42C0EA" transform="translate(0,0)"/>
<path d="" fill="#3AC2F3" transform="translate(0,0)"/>
<path d="" fill="#3CC3F3" transform="translate(0,0)"/>
<path d="" fill="#3BC3F0" transform="translate(0,0)"/>
<path d="" fill="#46C3E3" transform="translate(0,0)"/>
<path d="" fill="#3BC5EF" transform="translate(0,0)"/>
<path d="" fill="#39C4EC" transform="translate(0,0)"/>
<path d="" fill="#4DC8E1" transform="translate(0,0)"/>
<path d="" fill="#3AC4F3" transform="translate(0,0)"/>
<path d="" fill="#3AC2F2" transform="translate(0,0)"/>
<path d="" fill="#4DCEE7" transform="translate(0,0)"/>
<path d="" fill="#55D0E2" transform="translate(0,0)"/>
<path d="" fill="#4ED1E6" transform="translate(0,0)"/>
<path d="" fill="#50CDE3" transform="translate(0,0)"/>
<path d="" fill="#52CEE5" transform="translate(0,0)"/>
<path d="" fill="#53D1E3" transform="translate(0,0)"/>
<path d="" fill="#52D2E4" transform="translate(0,0)"/>
<path d="" fill="#59D4E0" transform="translate(0,0)"/>
<path d="" fill="#59D3DB" transform="translate(0,0)"/>
<path d="" fill="#4FCCE3" transform="translate(0,0)"/>
<path d="" fill="#4ECCE5" transform="translate(0,0)"/>
<path d="" fill="#49CDE3" transform="translate(0,0)"/>
<path d="" fill="#47C8E3" transform="translate(0,0)"/>
<path d="" fill="#56D3DF" transform="translate(0,0)"/>
<path d="" fill="#52D1DF" transform="translate(0,0)"/>
<path d="" fill="#9EEB76" transform="translate(0,0)"/>
<path d="" fill="#9AEB74" transform="translate(0,0)"/>
<path d="" fill="#9CEF72" transform="translate(0,0)"/>
<path d="" fill="#9FEB72" transform="translate(0,0)"/>
<path d="" fill="#9FEE6E" transform="translate(0,0)"/>
<path d="" fill="#9CEF6D" transform="translate(0,0)"/>
<path d="" fill="#91EC83" transform="translate(0,0)"/>
<path d="" fill="#92EB79" transform="translate(0,0)"/>
<path d="" fill="#A3F164" transform="translate(0,0)"/>
<path d="" fill="#ACEE55" transform="translate(0,0)"/>
<path d="" fill="#A8F253" transform="translate(0,0)"/>
<path d="" fill="#AAF254" transform="translate(0,0)"/>
<path d="" fill="#D2A591" transform="translate(0,0)"/>
<path d="" fill="#52C3E3" transform="translate(0,0)"/>
<path d="" fill="#DBA18E" transform="translate(0,0)"/>
<path d="" fill="#54C4EB" transform="translate(0,0)"/>
<path d="" fill="#E19F8A" transform="translate(0,0)"/>
<path d="" fill="#B6ACA3" transform="translate(0,0)"/>
<path d="" fill="#BFB1AA" transform="translate(0,0)"/>
<path d="" fill="#E59B84" transform="translate(0,0)"/>
<path d="" fill="#E79984" transform="translate(0,0)"/>
<path d="" fill="#51C5F0" transform="translate(0,0)"/>
<path d="" fill="#E79B84" transform="translate(0,0)"/>
<path d="" fill="#EA9D85" transform="translate(0,0)"/>
<path d="" fill="#42C4EE" transform="translate(0,0)"/>
<path d="" fill="#E39D81" transform="translate(0,0)"/>
<path d="" fill="#ADF149" transform="translate(0,0)"/>
<path d="" fill="#A8F146" transform="translate(0,0)"/>
<path d="" fill="#EC997F" transform="translate(0,0)"/>
<path d="" fill="#A9F247" transform="translate(0,0)"/>
<path d="" fill="#5BC3EA" transform="translate(0,0)"/>
<path d="" fill="#D3A89D" transform="translate(0,0)"/>
<path d="" fill="#5EC6EE" transform="translate(0,0)"/>
<path d="" fill="#63C5E9" transform="translate(0,0)"/>
<path d="" fill="#62C3E9" transform="translate(0,0)"/>
<path d="" fill="#ED9A7D" transform="translate(0,0)"/>
<path d="" fill="#61C5E6" transform="translate(0,0)"/>
<path d="" fill="#D6A496" transform="translate(0,0)"/>
<path d="" fill="#AEEB42" transform="translate(0,0)"/>
<path d="" fill="#EE987E" transform="translate(0,0)"/>
<path d="" fill="#ED967E" transform="translate(0,0)"/>
<path d="" fill="#6DC2E4" transform="translate(0,0)"/>
<path d="" fill="#AFF641" transform="translate(0,0)"/>
<path d="" fill="#ADF642" transform="translate(0,0)"/>
<path d="" fill="#6FC3E5" transform="translate(0,0)"/>
<path d="" fill="#ADF743" transform="translate(0,0)"/>
<path d="" fill="#D7A596" transform="translate(0,0)"/>
<path d="" fill="#AFEE46" transform="translate(0,0)"/>
<path d="" fill="#AAEE41" transform="translate(0,0)"/>
<path d="" fill="#6DC1E5" transform="translate(0,0)"/>
<path d="" fill="#7AC6E3" transform="translate(0,0)"/>
<path d="" fill="#ABF843" transform="translate(0,0)"/>
<path d="" fill="#D8A998" transform="translate(0,0)"/>
<path d="" fill="#73C3E4" transform="translate(0,0)"/>
<path d="" fill="#41C6F6" transform="translate(0,0)"/>
<path d="" fill="#7EC2E2" transform="translate(0,0)"/>
<path d="" fill="#AEEF41" transform="translate(0,0)"/>
<path d="" fill="#70C0E3" transform="translate(0,0)"/>
<path d="" fill="#77C1E0" transform="translate(0,0)"/>
<path d="" fill="#F0967B" transform="translate(0,0)"/>
<path d="" fill="#27B7EE" transform="translate(0,0)"/>
<path d="" fill="#40CBF7" transform="translate(0,0)"/>
<path d="" fill="#23B6F3" transform="translate(0,0)"/>
<path d="" fill="#22B0EF" transform="translate(0,0)"/>
<path d="" fill="#F2967B" transform="translate(0,0)"/>
<path d="" fill="#F09277" transform="translate(0,0)"/>
<path d="" fill="#7FC3E1" transform="translate(0,0)"/>
<path d="" fill="#ABF43F" transform="translate(0,0)"/>
<path d="" fill="#1FB0F0" transform="translate(0,0)"/>
<path d="" fill="#DBA794" transform="translate(0,0)"/>
<path d="" fill="#7FBCE0" transform="translate(0,0)"/>
<path d="" fill="#7CBFDD" transform="translate(0,0)"/>
<path d="" fill="#46BFDE" transform="translate(0,0)"/>
<path d="" fill="#41C8F6" transform="translate(0,0)"/>
<path d="" fill="#1CB7F5" transform="translate(0,0)"/>
<path d="" fill="#44C0DF" transform="translate(0,0)"/>
<path d="" fill="#41C0E1" transform="translate(0,0)"/>
<path d="" fill="#18B1F4" transform="translate(0,0)"/>
<path d="" fill="#75C3E6" transform="translate(0,0)"/>
<path d="" fill="#76C1E1" transform="translate(0,0)"/>
<path d="" fill="#F39579" transform="translate(0,0)"/>
<path d="" fill="#AAF53F" transform="translate(0,0)"/>
<path d="" fill="#72C3E7" transform="translate(0,0)"/>
<path d="" fill="#F09379" transform="translate(0,0)"/>
<path d="" fill="#F39078" transform="translate(0,0)"/>
<path d="" fill="#ACF53F" transform="translate(0,0)"/>
<path d="" fill="#39BFEA" transform="translate(0,0)"/>
<path d="" fill="#6DC6ED" transform="translate(0,0)"/>
<path d="" fill="#7BC5E2" transform="translate(0,0)"/>
<path d="" fill="#F0957A" transform="translate(0,0)"/>
<path d="" fill="#70C3E6" transform="translate(0,0)"/>
<path d="" fill="#73C2E5" transform="translate(0,0)"/>
<path d="" fill="#DEA998" transform="translate(0,0)"/>
<path d="" fill="#ACF441" transform="translate(0,0)"/>
<path d="" fill="#40C3F5" transform="translate(0,0)"/>
<path d="" fill="#78C3E1" transform="translate(0,0)"/>
<path d="" fill="#DCA79A" transform="translate(0,0)"/>
<path d="" fill="#DEA797" transform="translate(0,0)"/>
<path d="" fill="#45C3E4" transform="translate(0,0)"/>
<path d="" fill="#7DC3E3" transform="translate(0,0)"/>
<path d="" fill="#77C0E3" transform="translate(0,0)"/>
<path d="" fill="#15B1F6" transform="translate(0,0)"/>
<path d="" fill="#AAF540" transform="translate(0,0)"/>
<path d="" fill="#13B1F8" transform="translate(0,0)"/>
<path d="" fill="#13B0F5" transform="translate(0,0)"/>
<path d="" fill="#77C4E1" transform="translate(0,0)"/>
<path d="" fill="#ADEC43" transform="translate(0,0)"/>
<path d="" fill="#3AC5EA" transform="translate(0,0)"/>
<path d="" fill="#15B9FD" transform="translate(0,0)"/>
<path d="" fill="#79C1E1" transform="translate(0,0)"/>
<path d="" fill="#DCAB9B" transform="translate(0,0)"/>
<path d="" fill="#74BFE4" transform="translate(0,0)"/>
<path d="" fill="#F49278" transform="translate(0,0)"/>
<path d="" fill="#F19478" transform="translate(0,0)"/>
<path d="" fill="#DEAA9A" transform="translate(0,0)"/>
<path d="" fill="#F59278" transform="translate(0,0)"/>
<path d="" fill="#AEFA41" transform="translate(0,0)"/>
<path d="" fill="#15B1F5" transform="translate(0,0)"/>
<path d="" fill="#77C1E4" transform="translate(0,0)"/>
<path d="" fill="#F39178" transform="translate(0,0)"/>
<path d="" fill="#F18F76" transform="translate(0,0)"/>
<path d="" fill="#13B0F6" transform="translate(0,0)"/>
<path d="" fill="#ACF53E" transform="translate(0,0)"/>
<path d="" fill="#14B1F8" transform="translate(0,0)"/>
<path d="" fill="#13B2F6" transform="translate(0,0)"/>
<path d="" fill="#7AC1DF" transform="translate(0,0)"/>
<path d="" fill="#10ADF7" transform="translate(0,0)"/>
<path d="" fill="#70C1E6" transform="translate(0,0)"/>
<path d="" fill="#6AC4E8" transform="translate(0,0)"/>
<path d="" fill="#40C6F5" transform="translate(0,0)"/>
<path d="" fill="#B0F444" transform="translate(0,0)"/>
<path d="" fill="#F09679" transform="translate(0,0)"/>
<path d="" fill="#14AFF5" transform="translate(0,0)"/>
<path d="" fill="#E2A790" transform="translate(0,0)"/>
<path d="" fill="#68C5E9" transform="translate(0,0)"/>
<path d="" fill="#68C7EC" transform="translate(0,0)"/>
<path d="" fill="#46C5F2" transform="translate(0,0)"/>
<path d="" fill="#ADFE3F" transform="translate(0,0)"/>
<path d="" fill="#AEFE40" transform="translate(0,0)"/>
<path d="" fill="#ABF23E" transform="translate(0,0)"/>
<path d="" fill="#E9A184" transform="translate(0,0)"/>
<path d="" fill="#3DC6EE" transform="translate(0,0)"/>
<path d="" fill="#12AFF6" transform="translate(0,0)"/>
<path d="" fill="#A9F53F" transform="translate(0,0)"/>
<path d="" fill="#F49277" transform="translate(0,0)"/>
<path d="" fill="#13AEF3" transform="translate(0,0)"/>
<path d="" fill="#68C6EB" transform="translate(0,0)"/>
<path d="" fill="#EE9B83" transform="translate(0,0)"/>
<path d="" fill="#41C3F4" transform="translate(0,0)"/>
<path d="" fill="#EB9C81" transform="translate(0,0)"/>
<path d="" fill="#46C4F1" transform="translate(0,0)"/>
<path d="" fill="#EEA189" transform="translate(0,0)"/>
<path d="" fill="#ED9A7E" transform="translate(0,0)"/>
<path d="" fill="#ACF342" transform="translate(0,0)"/>
<path d="" fill="#3DC3ED" transform="translate(0,0)"/>
<path d="" fill="#AAF53F" transform="translate(0,0)"/>
<path d="" fill="#47C5F0" transform="translate(0,0)"/>
<path d="" fill="#ACFA40" transform="translate(0,0)"/>
<path d="" fill="#3FC8F4" transform="translate(0,0)"/>
<path d="" fill="#F79576" transform="translate(0,0)"/>
<path d="" fill="#34C7FA" transform="translate(0,0)"/>
<path d="" fill="#A9F13D" transform="translate(0,0)"/>
<path d="" fill="#ABF240" transform="translate(0,0)"/>
<path d="" fill="#39C6F0" transform="translate(0,0)"/>
<path d="" fill="#47C1F2" transform="translate(0,0)"/>
<path d="" fill="#49C1EF" transform="translate(0,0)"/>
<path d="" fill="#15ADF3" transform="translate(0,0)"/>
<path d="" fill="#16B0F2" transform="translate(0,0)"/>
<path d="" fill="#A8F03F" transform="translate(0,0)"/>
<path d="" fill="#17B1F2" transform="translate(0,0)"/>
<path d="" fill="#F9987B" transform="translate(0,0)"/>
<path d="" fill="#F09377" transform="translate(0,0)"/>
<path d="" fill="#13ACF3" transform="translate(0,0)"/>
<path d="" fill="#AAF13F" transform="translate(0,0)"/>
<path d="" fill="#A7ED3E" transform="translate(0,0)"/>
<path d="" fill="#12ACF2" transform="translate(0,0)"/>
<path d="" fill="#39C8F3" transform="translate(0,0)"/>
<path d="" fill="#F79679" transform="translate(0,0)"/>
<path d="" fill="#31C7FA" transform="translate(0,0)"/>
<path d="" fill="#A8EE3C" transform="translate(0,0)"/>
<path d="" fill="#AAEB3F" transform="translate(0,0)"/>
<path d="" fill="#F09174" transform="translate(0,0)"/>
<path d="" fill="#EB9476" transform="translate(0,0)"/>
<path d="" fill="#34C7F9" transform="translate(0,0)"/>
<path d="" fill="#33C7F8" transform="translate(0,0)"/>
<path d="" fill="#E98E74" transform="translate(0,0)"/>
<path d="" fill="#EB9075" transform="translate(0,0)"/>
<path d="" fill="#1BB5FA" transform="translate(0,0)"/>
<path d="" fill="#1AABEB" transform="translate(0,0)"/>
<path d="" fill="#EC8F73" transform="translate(0,0)"/>
<path d="" fill="#37C3F1" transform="translate(0,0)"/>
<path d="" fill="#1DABE6" transform="translate(0,0)"/>
<path d="" fill="#37C6FB" transform="translate(0,0)"/>
<path d="" fill="#1AB7FB" transform="translate(0,0)"/>
<path d="" fill="#36C7FC" transform="translate(0,0)"/>
<path d="" fill="#3F6D56" transform="translate(0,0)"/>
<path d="" fill="#36C8FA" transform="translate(0,0)"/>
<path d="" fill="#34C4F8" transform="translate(0,0)"/>
<path d="" fill="#27AAE5" transform="translate(0,0)"/>
<path d="" fill="#38C1EF" transform="translate(0,0)"/>
<path d="" fill="#3ABFF1" transform="translate(0,0)"/>
<path d="" fill="#39C0F0" transform="translate(0,0)"/>
<path d="" fill="#39BEEE" transform="translate(0,0)"/>
<path d="" fill="#39C1F1" transform="translate(0,0)"/>
<path d="" fill="#3BC3F3" transform="translate(0,0)"/>
<path d="" fill="#38C2F3" transform="translate(0,0)"/>
<path d="" fill="#3BC9F4" transform="translate(0,0)"/>
<path d="" fill="#38C1F1" transform="translate(0,0)"/>
<path d="" fill="#35BEEF" transform="translate(0,0)"/>
<path d="" fill="#3CBEEB" transform="translate(0,0)"/>
<path d="" fill="#3BC0EE" transform="translate(0,0)"/>
<path d="" fill="#3BBEEE" transform="translate(0,0)"/>
<path d="" fill="#39BBEA" transform="translate(0,0)"/>
<path d="" fill="#39BDED" transform="translate(0,0)"/>
<path d="" fill="#38BDEB" transform="translate(0,0)"/>
<path d="" fill="#38BCED" transform="translate(0,0)"/>
<path d="" fill="#3EBBE6" transform="translate(0,0)"/>
<path d="" fill="#3CBAE7" transform="translate(0,0)"/>
<path d="" fill="#3EBBE6" transform="translate(0,0)"/>
<path d="" fill="#42AED9" transform="translate(0,0)"/>
</svg>
